# Wavefront OBJ exported by MilkShape 3D

mtllib poster_nostairway.mtl

v -3.162727 3.731639 0.022365
v -3.162727 -3.708361 0.022365
v 3.077272 3.731639 0.022365
v 3.077272 -3.708361 0.022365
# 4 vertices

vt 0.000000 1.000000
vt 0.000000 0.000000
vt 1.000000 1.000000
vt 1.000000 0.000000
# 4 texture coordinates

vn 0.000000 0.000000 1.000000
# 1 normals

g Box02
usemtl Material01
s 1
f 1/1/1 2/2/1 3/3/1
f 2/2/1 4/4/1 3/3/1
# 2 triangles in group

# 2 triangles total

