# Wavefront OBJ exported by MilkShape 3D

mtllib turret.mtl

v 9.608673 -0.085847 -0.007036
v 8.674299 2.422893 -0.007036
v 9.012262 -0.288513 4.212164
v 8.077888 2.463130 3.510713
v 3.113033 -0.880141 6.819776
v 3.113033 2.869380 5.684804
v -3.023864 -0.880141 6.819776
v -3.023864 2.869380 5.684804
v -7.988713 -0.167239 4.212164
v -7.988713 2.138976 3.510713
v -7.990355 -0.167239 -0.007036
v -7.990355 2.138976 -0.007036
v -7.988713 -0.167239 -4.226237
v -7.988713 2.138976 -3.524785
v -3.023864 -0.880141 -6.833849
v -3.023864 2.869380 -5.698878
v 3.113033 -0.880141 -6.833849
v 3.113033 2.869380 -5.698878
v 9.012262 -0.288513 -4.226237
v 8.077888 2.463130 -3.524785
v 0.044585 2.869380 -0.007036
v 0.044585 -1.060142 -0.007036
v 2.601564 2.670226 2.057670
v 2.601564 2.970226 2.057670
v 2.113736 2.670226 3.517446
v 2.113736 2.970226 3.517446
v 0.836583 2.670226 4.419637
v 0.836583 2.970226 4.419637
v -0.742063 2.670226 4.419637
v -0.742063 2.970226 4.419637
v -2.019215 2.670226 3.517446
v -2.019215 2.970226 3.517446
v -2.507042 2.670226 2.057670
v -2.507042 2.970226 2.057670
v -2.019215 2.670226 0.597894
v -2.019215 2.970226 0.597894
v -0.742063 2.670226 -0.304297
v -0.742063 2.970226 -0.304297
v 0.836583 2.670226 -0.304297
v 0.836583 2.970226 -0.304297
v 2.113736 2.670226 0.597894
v 2.113736 2.970226 0.597894
v 0.047261 2.970226 2.057670
v 0.047261 2.670226 2.057670
v 10.128439 -0.232457 -0.007036
v 10.119043 0.089185 -0.007036
v 9.502213 -0.257674 4.423125
v 9.492811 -0.021870 4.421925
v 3.218021 -1.074677 7.161116
v 3.218021 -0.475778 7.159177
v -3.225721 -1.074677 7.161116
v -3.225721 -0.475778 7.159177
v -8.348813 -0.620547 4.423125
v -8.348813 -0.079833 4.421925
v -8.350536 -0.620547 -0.007036
v -8.350536 -0.079833 -0.007036
v -8.348813 -0.620547 -4.437197
v -8.348813 -0.079833 -4.435997
v -3.225721 -1.074677 -7.175189
v -3.225721 -0.475778 -7.173251
v 3.218021 -1.074677 -7.175189
v 3.218021 -0.475778 -7.173251
v 9.502213 -0.257674 -4.437197
v 9.492811 -0.021870 -4.435997
v -0.003850 -0.475778 -0.007036
v -0.003850 -1.074677 -0.007036
v -7.640329 0.893279 0.571872
v -21.369343 0.893279 0.571872
v -7.640329 0.476289 0.402314
v -21.369343 0.476289 0.402314
v -7.640329 0.303566 -0.007034
v -21.369343 0.303566 -0.007034
v -7.640329 0.476289 -0.416383
v -21.369343 0.476289 -0.416383
v -7.640329 0.893279 -0.585941
v -21.369343 0.893279 -0.585941
v -7.640329 1.310268 -0.416383
v -21.369343 1.310268 -0.416383
v -7.640329 1.482990 -0.007034
v -21.369343 1.482990 -0.007034
v -7.640329 1.310268 0.402314
v -21.369343 1.310268 0.402314
v -21.369343 0.893279 -0.007034
v -7.640329 0.893279 -0.007034
v -21.073339 0.898280 0.709932
v -21.811321 0.898280 0.709932
v -21.073339 0.381842 0.499937
v -21.811321 0.381842 0.499937
v -21.073339 0.167929 -0.007034
v -21.811321 0.167929 -0.007034
v -21.073339 0.381842 -0.514006
v -21.811321 0.381842 -0.514006
v -21.073339 0.898280 -0.724001
v -21.811321 0.898280 -0.724001
v -21.073339 1.414716 -0.514006
v -21.811321 1.414716 -0.514006
v -21.073339 1.628630 -0.007034
v -21.811321 1.628630 -0.007034
v -21.073339 1.414716 0.499937
v -21.811321 1.414716 0.499937
v -21.811321 0.898280 -0.007034
v -21.073339 0.898280 -0.007034
# 102 vertices

vt 0.828798 0.897405
vt 0.824035 0.936155
vt 0.759875 0.897405
vt 0.461817 0.485836
vt 0.283269 0.485836
vt 0.449477 0.404600
vt 0.283629 0.472532
vt 0.283629 0.577888
vt 0.093572 0.451720
vt 0.125170 0.579475
vt 0.784382 0.960104
vt 0.346755 0.354393
vt 0.587696 0.353620
vt 0.587696 0.445572
vt 0.479299 0.457105
vt 0.479299 0.345554
vt 0.735368 0.960104
vt 0.219783 0.354393
vt 0.345314 0.345554
vt 0.345314 0.457105
vt 0.695715 0.936155
vt 0.117060 0.404600
vt 0.236918 0.429451
vt 0.236918 0.373209
vt 0.695702 0.897405
vt 0.117026 0.485836
vt 0.093572 0.478935
vt 0.125170 0.557076
vt 0.283629 0.478935
vt 0.283629 0.557076
vt 0.695715 0.858654
vt 0.117060 0.567071
vt 0.442089 0.557076
vt 0.473687 0.478935
vt 0.735368 0.834705
vt 0.219783 0.617277
vt 0.784382 0.834705
vt 0.346755 0.617277
vt 0.824035 0.858654
vt 0.449477 0.567071
vt 0.473687 0.451720
vt 0.442089 0.579475
vt 0.539839 0.716463
vt 0.417448 0.716463
vt 0.946895 0.375573
vt 0.882881 0.375573
vt 0.934669 0.339734
vt 0.539839 0.746619
vt 0.417448 0.746619
vt 0.341806 0.716463
vt 0.902662 0.317585
vt 0.341806 0.746619
vt 0.863099 0.317585
vt 0.831092 0.339734
vt 0.818866 0.375573
vt 0.662231 0.716463
vt 0.831092 0.411412
vt 0.662231 0.746619
vt 0.737873 0.716463
vt 0.863099 0.433562
vt 0.737873 0.746619
vt 0.902662 0.433562
vt 0.934669 0.411412
vt 0.648782 0.646774
vt 0.648782 0.649260
vt 0.648782 0.655262
vt 0.109373 0.646774
vt 0.109373 0.655262
vt 0.109373 0.649260
vt 0.648782 0.661264
vt 0.109373 0.661264
vt 0.648782 0.663750
vt 0.109373 0.663750
vt 0.121003 0.644750
vt 0.121003 0.647829
vt 0.121003 0.655262
vt 0.868719 0.026592
vt 0.940465 0.026592
vt 0.873430 0.013378
vt 0.092008 0.644750
vt 0.092008 0.647829
vt 0.940465 0.007905
vt 0.092008 0.655262
vt 0.121003 0.662695
vt 0.989923 0.013378
vt 0.092008 0.662695
vt 0.121003 0.665774
vt 0.994633 0.026592
vt 0.092008 0.665774
vt 0.989923 0.039807
vt 0.940465 0.045280
vt 0.873430 0.039807
# 92 texture coordinates

vn 0.101346 -0.994851 -0.000000
vn 0.097136 -0.994970 -0.024492
vn -0.008538 -0.999964 -0.000000
vn 0.051669 0.998664 0.000000
vn -0.018219 0.999834 -0.000000
vn 0.058850 0.998084 -0.019128
vn 0.937113 0.349026 0.000000
vn 0.935696 0.352807 -0.000000
vn 0.733159 0.369527 0.570901
vn 0.734487 0.390834 0.554777
vn 0.046547 -0.998901 0.005416
vn 0.033029 0.999296 -0.017806
vn 0.195470 0.306301 0.931650
vn 0.186568 0.284629 0.940308
vn -0.063298 -0.997992 -0.002137
vn -0.059106 0.997743 -0.031864
vn -0.214395 0.283276 0.934767
vn -0.118387 -0.992850 -0.015291
vn -0.104301 0.994038 -0.031790
vn -0.842150 0.156534 0.516024
vn -0.110448 -0.993882 0.000000
vn -0.090530 0.995894 -0.000000
vn -1.000000 0.000059 -0.000000
vn -0.118387 -0.992850 0.015291
vn -0.104301 0.994038 0.031790
vn -0.842150 0.156534 -0.516024
vn -0.063298 -0.997992 0.002137
vn -0.059106 0.997743 0.031864
vn -0.214395 0.283276 -0.934767
vn 0.046547 -0.998901 -0.005416
vn 0.033029 0.999296 0.017806
vn 0.195470 0.306301 -0.931650
vn 0.186568 0.284629 -0.940308
vn 0.097136 -0.994970 0.024492
vn 0.058850 0.998084 0.019128
vn 0.733159 0.369527 -0.570901
vn 0.734487 0.390834 -0.554777
vn 0.000000 -1.000000 0.000000
vn 0.000000 1.000000 0.000000
vn 1.000000 0.000000 0.000000
vn 0.802604 0.000000 0.596512
vn 0.302683 0.000000 0.953091
vn -0.302684 0.000000 0.953091
vn -0.802605 0.000000 0.596511
vn -0.802605 0.000000 -0.596511
vn -0.302683 0.000000 -0.953091
vn 0.302683 0.000000 -0.953091
vn 0.802604 0.000000 -0.596512
vn 0.082837 -0.996563 0.000000
vn 0.095438 -0.995209 -0.021252
vn 0.013079 -0.999914 0.000000
vn -0.055724 0.998446 0.000000
vn -0.001303 0.999999 0.000000
vn -0.058031 0.998069 0.022143
vn 0.999574 0.029199 0.000000
vn 0.999391 0.034880 0.000000
vn 0.795246 0.026519 0.605706
vn 0.794813 0.034771 0.605858
vn 0.054072 -0.998241 -0.024304
vn -0.030189 0.999452 0.013573
vn 0.203678 0.007660 0.979008
vn 0.203831 0.003169 0.979001
vn -0.035655 -0.999236 -0.016026
vn 0.031104 0.999418 0.013984
vn -0.242842 0.002909 0.970062
vn -0.062802 -0.997898 -0.016006
vn 0.054785 0.998400 0.013969
vn -0.857555 0.001403 0.514390
vn -0.054328 -0.998523 0.000000
vn 0.047384 0.998877 0.000000
vn -0.062802 -0.997898 0.016006
vn 0.054785 0.998400 -0.013969
vn -0.857555 0.001403 -0.514390
vn -0.035655 -0.999236 0.016026
vn 0.031104 0.999418 -0.013984
vn -0.242842 0.002908 -0.970062
vn 0.054072 -0.998241 0.024304
vn -0.030189 0.999452 -0.013573
vn 0.203679 0.007659 -0.979008
vn 0.203831 0.003168 -0.979001
vn 0.095438 -0.995209 0.021252
vn -0.058031 0.998069 -0.022143
vn 0.795246 0.026518 -0.605706
vn 0.794813 0.034771 -0.605858
vn 0.000000 0.000000 1.000000
vn 0.000000 -0.702467 0.711716
vn 0.000000 -0.702467 -0.711716
vn 0.000000 0.000000 -1.000000
vn 0.000000 0.702469 -0.711714
vn 0.000000 0.702469 0.711714
# 90 normals

g Cylinder08
usemtl Material02
s 2
f 1/1/1 3/2/2 22/3/3
f 2/4/4 21/5/5 4/6/6
s 1
f 1/7/7 2/8/8 3/9/9
f 2/8/8 4/10/10 3/9/9
s 2
f 3/2/2 5/11/11 22/3/3
f 4/6/6 21/5/5 6/12/12
s 1
f 3/13/9 4/14/10 6/15/13
f 3/13/9 6/15/13 5/16/14
s 2
f 5/11/11 7/17/15 22/3/3
f 6/12/12 21/5/5 8/18/16
s 1
f 5/16/14 6/15/13 7/19/17
f 6/15/13 8/20/17 7/19/17
s 2
f 7/17/15 9/21/18 22/3/3
f 8/18/16 21/5/5 10/22/19
s 1
f 7/19/17 8/20/17 10/23/20
f 7/19/17 10/23/20 9/24/20
s 2
f 9/21/18 11/25/21 22/3/3
f 10/22/19 21/5/5 12/26/22
s 1
f 9/27/20 10/28/20 11/29/23
f 10/28/20 12/30/23 11/29/23
s 2
f 11/25/21 13/31/24 22/3/3
f 12/26/22 21/5/5 14/32/25
s 1
f 11/29/23 12/30/23 14/33/26
f 11/29/23 14/33/26 13/34/26
s 2
f 13/31/24 15/35/27 22/3/3
f 14/32/25 21/5/5 16/36/28
s 1
f 13/24/26 14/23/26 15/19/29
f 14/23/26 16/20/29 15/19/29
s 2
f 15/35/27 17/37/30 22/3/3
f 16/36/28 21/5/5 18/38/31
s 1
f 15/19/29 16/20/29 18/15/32
f 15/19/29 18/15/32 17/16/33
s 2
f 17/37/30 19/39/34 22/3/3
f 18/38/31 21/5/5 20/40/35
s 1
f 17/16/33 18/15/32 19/13/36
f 18/15/32 20/14/37 19/13/36
s 2
f 19/39/34 1/1/1 22/3/3
f 20/40/35 21/5/5 2/4/4
s 1
f 19/41/36 20/42/37 2/8/8
f 19/41/36 2/8/8 1/7/7
# 40 triangles in group

g Cylinder14
usemtl Material02
s 2
f 23/43/38 25/44/38 44/43/38
f 24/45/39 43/46/39 26/47/39
s 1
f 23/43/40 24/48/40 25/44/41
f 24/48/40 26/49/41 25/44/41
s 2
f 25/44/38 27/50/38 44/43/38
f 26/47/39 43/46/39 28/51/39
s 1
f 25/44/41 26/49/41 28/52/42
f 25/44/41 28/52/42 27/50/42
s 2
f 27/50/38 29/50/38 44/43/38
f 28/51/39 43/46/39 30/53/39
s 1
f 27/50/42 28/52/42 29/50/43
f 28/52/42 30/52/43 29/50/43
s 2
f 29/50/38 31/44/38 44/43/38
f 30/53/39 43/46/39 32/54/39
s 1
f 29/50/43 30/52/43 32/49/44
f 29/50/43 32/49/44 31/44/44
s 2
f 31/44/38 33/43/38 44/43/38
f 32/54/39 43/46/39 34/55/39
s 1
f 31/44/44 32/49/44 33/43/23
f 32/49/44 34/48/23 33/43/23
s 2
f 33/43/38 35/56/38 44/43/38
f 34/55/39 43/46/39 36/57/39
s 1
f 33/43/23 34/48/23 36/58/45
f 33/43/23 36/58/45 35/56/45
s 2
f 35/56/38 37/59/38 44/43/38
f 36/57/39 43/46/39 38/60/39
s 1
f 35/56/45 36/58/45 37/59/46
f 36/58/45 38/61/46 37/59/46
s 2
f 37/59/38 39/59/38 44/43/38
f 38/60/39 43/46/39 40/62/39
s 1
f 37/59/46 38/61/46 40/61/47
f 37/59/46 40/61/47 39/59/47
s 2
f 39/59/38 41/56/38 44/43/38
f 40/62/39 43/46/39 42/63/39
s 1
f 39/59/47 40/61/47 41/56/48
f 40/61/47 42/58/48 41/56/48
s 2
f 41/56/38 23/43/38 44/43/38
f 42/63/39 43/46/39 24/45/39
s 1
f 41/56/48 42/58/48 24/48/40
f 41/56/48 24/48/40 23/43/40
# 40 triangles in group

g Duplicate13
usemtl Material02
s 2
f 45/1/49 47/2/50 66/3/51
f 46/4/52 65/5/53 48/6/54
s 1
f 45/7/55 46/8/56 47/9/57
f 46/8/56 48/10/58 47/9/57
s 2
f 47/2/50 49/11/59 66/3/51
f 48/6/54 65/5/53 50/12/60
s 1
f 47/13/57 48/14/58 50/15/61
f 47/13/57 50/15/61 49/16/62
s 2
f 49/11/59 51/17/63 66/3/51
f 50/12/60 65/5/53 52/18/64
s 1
f 49/16/62 50/15/61 51/19/65
f 50/15/61 52/20/65 51/19/65
s 2
f 51/17/63 53/21/66 66/3/51
f 52/18/64 65/5/53 54/22/67
s 1
f 51/19/65 52/20/65 54/23/68
f 51/19/65 54/23/68 53/24/68
s 2
f 53/21/66 55/25/69 66/3/51
f 54/22/67 65/5/53 56/26/70
s 1
f 53/27/68 54/28/68 55/29/23
f 54/28/68 56/30/23 55/29/23
s 2
f 55/25/69 57/31/71 66/3/51
f 56/26/70 65/5/53 58/32/72
s 1
f 55/29/23 56/30/23 58/33/73
f 55/29/23 58/33/73 57/34/73
s 2
f 57/31/71 59/35/74 66/3/51
f 58/32/72 65/5/53 60/36/75
s 1
f 57/24/73 58/23/73 59/19/76
f 58/23/73 60/20/76 59/19/76
s 2
f 59/35/74 61/37/77 66/3/51
f 60/36/75 65/5/53 62/38/78
s 1
f 59/19/76 60/20/76 62/15/79
f 59/19/76 62/15/79 61/16/80
s 2
f 61/37/77 63/39/81 66/3/51
f 62/38/78 65/5/53 64/40/82
s 1
f 61/16/80 62/15/79 63/13/83
f 62/15/79 64/14/84 63/13/83
s 2
f 63/39/81 45/1/49 66/3/51
f 64/40/82 65/5/53 46/4/52
s 1
f 63/41/83 64/42/84 46/8/56
f 63/41/83 46/8/56 45/7/55
# 40 triangles in group

g barrel
usemtl Material02
s 2
f 67/64/40 69/65/40 84/66/40
f 68/67/23 83/68/23 70/69/23
s 1
f 67/64/85 68/67/85 69/65/86
f 68/67/85 70/69/86 69/65/86
s 2
f 69/65/40 71/66/40 84/66/40
f 70/69/23 83/68/23 72/68/23
s 1
f 69/65/86 70/69/86 72/68/38
f 69/65/86 72/68/38 71/66/38
s 2
f 71/66/40 73/70/40 84/66/40
f 72/68/23 83/68/23 74/71/23
s 1
f 71/66/38 72/68/38 73/70/87
f 72/68/38 74/71/87 73/70/87
s 2
f 73/70/40 75/72/40 84/66/40
f 74/71/23 83/68/23 76/73/23
s 1
f 73/70/87 74/71/87 76/73/88
f 73/70/87 76/73/88 75/72/88
s 2
f 75/72/40 77/70/40 84/66/40
f 76/73/23 83/68/23 78/71/23
s 1
f 75/72/88 76/73/88 77/70/89
f 76/73/88 78/71/89 77/70/89
s 2
f 77/70/40 79/66/40 84/66/40
f 78/71/23 83/68/23 80/68/23
s 1
f 77/70/89 78/71/89 80/68/39
f 77/70/89 80/68/39 79/66/39
s 2
f 79/66/40 81/65/40 84/66/40
f 80/68/23 83/68/23 82/69/23
s 1
f 79/66/39 80/68/39 81/65/90
f 80/68/39 82/69/90 81/65/90
s 2
f 81/65/40 67/64/40 84/66/40
f 82/69/23 83/68/23 68/67/23
s 1
f 81/65/90 82/69/90 68/67/85
f 81/65/90 68/67/85 67/64/85
s 2
f 85/74/40 87/75/40 102/76/40
f 86/77/23 101/78/23 88/79/23
s 1
f 85/74/85 86/80/85 87/75/86
f 86/80/85 88/81/86 87/75/86
s 2
f 87/75/40 89/76/40 102/76/40
f 88/79/23 101/78/23 90/82/23
s 1
f 87/75/86 88/81/86 90/83/38
f 87/75/86 90/83/38 89/76/38
s 2
f 89/76/40 91/84/40 102/76/40
f 90/82/23 101/78/23 92/85/23
s 1
f 89/76/38 90/83/38 91/84/87
f 90/83/38 92/86/87 91/84/87
s 2
f 91/84/40 93/87/40 102/76/40
f 92/85/23 101/78/23 94/88/23
s 1
f 91/84/87 92/86/87 94/89/88
f 91/84/87 94/89/88 93/87/88
s 2
f 93/87/40 95/84/40 102/76/40
f 94/88/23 101/78/23 96/90/23
s 1
f 93/87/88 94/89/88 95/84/89
f 94/89/88 96/86/89 95/84/89
s 2
f 95/84/40 97/76/40 102/76/40
f 96/90/23 101/78/23 98/91/23
s 1
f 95/84/89 96/86/89 98/83/39
f 95/84/89 98/83/39 97/76/39
s 2
f 97/76/40 99/75/40 102/76/40
f 98/91/23 101/78/23 100/92/23
s 1
f 97/76/39 98/83/39 99/75/90
f 98/83/39 100/81/90 99/75/90
s 2
f 99/75/40 85/74/40 102/76/40
f 100/92/23 101/78/23 86/77/23
s 1
f 99/75/90 100/81/90 86/80/85
f 99/75/90 86/80/85 85/74/85
# 64 triangles in group

# 184 triangles total

