# Wavefront OBJ exported by MilkShape 3D

v 2.392576 -1.752603 0.000000
v 2.392576 1.939704 0.000000
v 1.200269 -1.752603 2.065137
v 1.200269 1.939704 2.065137
v -1.184347 -1.752603 2.065137
v -1.184347 1.939704 2.065137
v -2.376655 -1.752603 0.000000
v -2.376655 1.939704 0.000000
v -1.184347 -1.752603 -2.065137
v -1.184347 1.939704 -2.065137
v 1.200269 -1.752603 -2.065137
v 1.200269 1.939704 -2.065137
v 0.007961 1.939704 0.000000
v 0.007961 -1.752603 0.000000
# 14 vertices

vt 0.000000 1.000000
vt 0.000000 0.000000
vt 0.166667 0.000000
vt 0.166667 1.000000
vt 0.333333 1.000000
vt 0.333333 0.000000
vt 0.500000 0.000000
vt 0.500000 1.000000
vt 0.666667 1.000000
vt 0.666667 0.000000
vt 0.833333 0.000000
vt 0.833333 1.000000
vt 1.000000 1.000000
vt 1.000000 0.000000
# 14 texture coordinates

vn 0.000000 -1.000000 0.000000
vn 0.000000 1.000000 0.000000
vn 1.000000 0.000000 0.000000
vn 0.500000 0.000000 0.866025
vn -0.500000 0.000000 0.866025
vn -1.000000 0.000000 0.000000
vn -0.500000 0.000000 -0.866025
vn 0.500000 0.000000 -0.866025
# 8 normals

g Cylinder01
s 2
f 1/1/1 3/1/1 14/1/1
f 2/1/2 13/1/2 4/1/2
s 1
f 1/2/3 2/1/3 3/3/4
f 2/1/3 4/4/4 3/3/4
s 2
f 3/1/1 5/1/1 14/1/1
f 4/1/2 13/1/2 6/1/2
s 1
f 3/3/4 4/4/4 6/5/5
f 3/3/4 6/5/5 5/6/5
s 2
f 5/1/1 7/1/1 14/1/1
f 6/1/2 13/1/2 8/1/2
s 1
f 5/6/5 6/5/5 7/7/6
f 6/5/5 8/8/6 7/7/6
s 2
f 7/1/1 9/1/1 14/1/1
f 8/1/2 13/1/2 10/1/2
s 1
f 7/7/6 8/8/6 10/9/7
f 7/7/6 10/9/7 9/10/7
s 2
f 9/1/1 11/1/1 14/1/1
f 10/1/2 13/1/2 12/1/2
s 1
f 9/10/7 10/9/7 11/11/8
f 10/9/7 12/12/8 11/11/8
s 2
f 11/1/1 1/1/1 14/1/1
f 12/1/2 13/1/2 2/1/2
s 1
f 11/11/8 12/12/8 2/13/3
f 11/11/8 2/13/3 1/14/3
# 24 triangles in group

# 24 triangles total

